<svg width="150" height="11" viewBox="0 0 150 11" fill="none" xmlns="http://www.w3.org/2000/svg">
<path opacity="0.8" d="M4.97294 5.28222V5.15422C4.90894 5.13289 4.78627 5.11689 4.60494 5.10622C4.4236 5.09555 4.21027 5.09022 3.96494 5.09022C3.73027 5.07955 3.47427 5.07422 3.19694 5.07422C2.9196 5.07422 2.65294 5.07422 2.39694 5.07422H1.08494C1.04227 5.07422 1.02094 5.09022 1.02094 5.12222C0.967604 5.27155 0.924938 5.43155 0.892938 5.60222C0.860938 5.77289 0.834271 5.94355 0.812938 6.11422C0.812938 6.17822 0.839604 6.19955 0.892938 6.17822C1.2556 6.03955 1.62894 5.93289 2.01294 5.85822C2.39694 5.78355 2.7756 5.71955 3.14894 5.66622C3.45827 5.61288 3.76227 5.55955 4.06094 5.50622C4.37027 5.44222 4.67427 5.36755 4.97294 5.28222ZM9.83231 5.28222V5.15422C9.76831 5.13289 9.64565 5.11689 9.46431 5.10622C9.28298 5.09555 9.06965 5.09022 8.82431 5.09022C8.58965 5.07955 8.33365 5.07422 8.05631 5.07422C7.77898 5.07422 7.51231 5.07422 7.25631 5.07422H5.94431C5.90165 5.07422 5.88031 5.09022 5.88031 5.12222C5.82698 5.27155 5.78431 5.43155 5.75231 5.60222C5.72031 5.77289 5.69365 5.94355 5.67231 6.11422C5.67231 6.17822 5.69898 6.19955 5.75231 6.17822C6.11498 6.03955 6.48831 5.93289 6.87231 5.85822C7.25631 5.78355 7.63498 5.71955 8.00831 5.66622C8.31765 5.61288 8.62165 5.55955 8.92031 5.50622C9.22965 5.44222 9.53365 5.36755 9.83231 5.28222ZM14.6917 5.28222V5.15422C14.6277 5.13289 14.505 5.11689 14.3237 5.10622C14.1424 5.09555 13.929 5.09022 13.6837 5.09022C13.449 5.07955 13.193 5.07422 12.9157 5.07422C12.6384 5.07422 12.3717 5.07422 12.1157 5.07422H10.8037C10.761 5.07422 10.7397 5.09022 10.7397 5.12222C10.6864 5.27155 10.6437 5.43155 10.6117 5.60222C10.5797 5.77289 10.553 5.94355 10.5317 6.11422C10.5317 6.17822 10.5584 6.19955 10.6117 6.17822C10.9744 6.03955 11.3477 5.93289 11.7317 5.85822C12.1157 5.78355 12.4944 5.71955 12.8677 5.66622C13.177 5.61288 13.481 5.55955 13.7797 5.50622C14.089 5.44222 14.393 5.36755 14.6917 5.28222ZM19.5511 5.28222V5.15422C19.4871 5.13289 19.3644 5.11689 19.1831 5.10622C19.0017 5.09555 18.7884 5.09022 18.5431 5.09022C18.3084 5.07955 18.0524 5.07422 17.7751 5.07422C17.4977 5.07422 17.2311 5.07422 16.9751 5.07422H15.6631C15.6204 5.07422 15.5991 5.09022 15.5991 5.12222C15.5457 5.27155 15.5031 5.43155 15.4711 5.60222C15.4391 5.77289 15.4124 5.94355 15.3911 6.11422C15.3911 6.17822 15.4177 6.19955 15.4711 6.17822C15.8337 6.03955 16.2071 5.93289 16.5911 5.85822C16.9751 5.78355 17.3537 5.71955 17.7271 5.66622C18.0364 5.61288 18.3404 5.55955 18.6391 5.50622C18.9484 5.44222 19.2524 5.36755 19.5511 5.28222ZM24.4104 5.28222V5.15422C24.3464 5.13289 24.2238 5.11689 24.0424 5.10622C23.8611 5.09555 23.6478 5.09022 23.4024 5.09022C23.1678 5.07955 22.9118 5.07422 22.6344 5.07422C22.3571 5.07422 22.0904 5.07422 21.8344 5.07422H20.5224C20.4798 5.07422 20.4584 5.09022 20.4584 5.12222C20.4051 5.27155 20.3624 5.43155 20.3304 5.60222C20.2984 5.77289 20.2718 5.94355 20.2504 6.11422C20.2504 6.17822 20.2771 6.19955 20.3304 6.17822C20.6931 6.03955 21.0664 5.93289 21.4504 5.85822C21.8344 5.78355 22.2131 5.71955 22.5864 5.66622C22.8958 5.61288 23.1998 5.55955 23.4984 5.50622C23.8078 5.44222 24.1118 5.36755 24.4104 5.28222ZM29.2698 5.28222V5.15422C29.2058 5.13289 29.0831 5.11689 28.9018 5.10622C28.7205 5.09555 28.5071 5.09022 28.2618 5.09022C28.0271 5.07955 27.7711 5.07422 27.4938 5.07422C27.2165 5.07422 26.9498 5.07422 26.6938 5.07422H25.3818C25.3391 5.07422 25.3178 5.09022 25.3178 5.12222C25.2645 5.27155 25.2218 5.43155 25.1898 5.60222C25.1578 5.77289 25.1311 5.94355 25.1098 6.11422C25.1098 6.17822 25.1365 6.19955 25.1898 6.17822C25.5525 6.03955 25.9258 5.93289 26.3098 5.85822C26.6938 5.78355 27.0725 5.71955 27.4458 5.66622C27.7551 5.61288 28.0591 5.55955 28.3578 5.50622C28.6671 5.44222 28.9711 5.36755 29.2698 5.28222ZM34.1292 5.28222V5.15422C34.0652 5.13289 33.9425 5.11689 33.7612 5.10622C33.5799 5.09555 33.3665 5.09022 33.1212 5.09022C32.8865 5.07955 32.6305 5.07422 32.3532 5.07422C32.0759 5.07422 31.8092 5.07422 31.5532 5.07422H30.2412C30.1985 5.07422 30.1772 5.09022 30.1772 5.12222C30.1239 5.27155 30.0812 5.43155 30.0492 5.60222C30.0172 5.77289 29.9905 5.94355 29.9692 6.11422C29.9692 6.17822 29.9959 6.19955 30.0492 6.17822C30.4119 6.03955 30.7852 5.93289 31.1692 5.85822C31.5532 5.78355 31.9319 5.71955 32.3052 5.66622C32.6145 5.61288 32.9185 5.55955 33.2172 5.50622C33.5265 5.44222 33.8305 5.36755 34.1292 5.28222ZM38.9886 5.28222V5.15422C38.9246 5.13289 38.8019 5.11689 38.6206 5.10622C38.4392 5.09555 38.2259 5.09022 37.9806 5.09022C37.7459 5.07955 37.4899 5.07422 37.2126 5.07422C36.9352 5.07422 36.6686 5.07422 36.4126 5.07422H35.1006C35.0579 5.07422 35.0366 5.09022 35.0366 5.12222C34.9832 5.27155 34.9406 5.43155 34.9086 5.60222C34.8766 5.77289 34.8499 5.94355 34.8286 6.11422C34.8286 6.17822 34.8552 6.19955 34.9086 6.17822C35.2712 6.03955 35.6446 5.93289 36.0286 5.85822C36.4126 5.78355 36.7912 5.71955 37.1646 5.66622C37.4739 5.61288 37.7779 5.55955 38.0766 5.50622C38.3859 5.44222 38.6899 5.36755 38.9886 5.28222ZM43.8479 5.28222V5.15422C43.7839 5.13289 43.6613 5.11689 43.4799 5.10622C43.2986 5.09555 43.0853 5.09022 42.8399 5.09022C42.6053 5.07955 42.3493 5.07422 42.0719 5.07422C41.7946 5.07422 41.5279 5.07422 41.2719 5.07422H39.9599C39.9173 5.07422 39.8959 5.09022 39.8959 5.12222C39.8426 5.27155 39.7999 5.43155 39.7679 5.60222C39.7359 5.77289 39.7093 5.94355 39.6879 6.11422C39.6879 6.17822 39.7146 6.19955 39.7679 6.17822C40.1306 6.03955 40.5039 5.93289 40.8879 5.85822C41.2719 5.78355 41.6506 5.71955 42.0239 5.66622C42.3333 5.61288 42.6373 5.55955 42.9359 5.50622C43.2453 5.44222 43.5493 5.36755 43.8479 5.28222ZM48.7073 5.28222V5.15422C48.6433 5.13289 48.5206 5.11689 48.3393 5.10622C48.158 5.09555 47.9446 5.09022 47.6993 5.09022C47.4646 5.07955 47.2086 5.07422 46.9313 5.07422C46.654 5.07422 46.3873 5.07422 46.1313 5.07422H44.8193C44.7766 5.07422 44.7553 5.09022 44.7553 5.12222C44.702 5.27155 44.6593 5.43155 44.6273 5.60222C44.5953 5.77289 44.5686 5.94355 44.5473 6.11422C44.5473 6.17822 44.574 6.19955 44.6273 6.17822C44.99 6.03955 45.3633 5.93289 45.7473 5.85822C46.1313 5.78355 46.51 5.71955 46.8833 5.66622C47.1926 5.61288 47.4966 5.55955 47.7953 5.50622C48.1046 5.44222 48.4086 5.36755 48.7073 5.28222ZM53.5667 5.28222V5.15422C53.5027 5.13289 53.38 5.11689 53.1987 5.10622C53.0174 5.09555 52.804 5.09022 52.5587 5.09022C52.324 5.07955 52.068 5.07422 51.7907 5.07422C51.5134 5.07422 51.2467 5.07422 50.9907 5.07422H49.6787C49.636 5.07422 49.6147 5.09022 49.6147 5.12222C49.5614 5.27155 49.5187 5.43155 49.4867 5.60222C49.4547 5.77289 49.428 5.94355 49.4067 6.11422C49.4067 6.17822 49.4334 6.19955 49.4867 6.17822C49.8494 6.03955 50.2227 5.93289 50.6067 5.85822C50.9907 5.78355 51.3694 5.71955 51.7427 5.66622C52.052 5.61288 52.356 5.55955 52.6547 5.50622C52.964 5.44222 53.268 5.36755 53.5667 5.28222ZM58.4261 5.28222V5.15422C58.3621 5.13289 58.2394 5.11689 58.0581 5.10622C57.8767 5.09555 57.6634 5.09022 57.4181 5.09022C57.1834 5.07955 56.9274 5.07422 56.6501 5.07422C56.3727 5.07422 56.1061 5.07422 55.8501 5.07422H54.5381C54.4954 5.07422 54.4741 5.09022 54.4741 5.12222C54.4207 5.27155 54.3781 5.43155 54.3461 5.60222C54.3141 5.77289 54.2874 5.94355 54.2661 6.11422C54.2661 6.17822 54.2927 6.19955 54.3461 6.17822C54.7087 6.03955 55.0821 5.93289 55.4661 5.85822C55.8501 5.78355 56.2287 5.71955 56.6021 5.66622C56.9114 5.61288 57.2154 5.55955 57.5141 5.50622C57.8234 5.44222 58.1274 5.36755 58.4261 5.28222ZM63.2854 5.28222V5.15422C63.2214 5.13289 63.0988 5.11689 62.9174 5.10622C62.7361 5.09555 62.5228 5.09022 62.2774 5.09022C62.0428 5.07955 61.7868 5.07422 61.5094 5.07422C61.2321 5.07422 60.9654 5.07422 60.7094 5.07422H59.3974C59.3548 5.07422 59.3334 5.09022 59.3334 5.12222C59.2801 5.27155 59.2374 5.43155 59.2054 5.60222C59.1734 5.77289 59.1468 5.94355 59.1254 6.11422C59.1254 6.17822 59.1521 6.19955 59.2054 6.17822C59.5681 6.03955 59.9414 5.93289 60.3254 5.85822C60.7094 5.78355 61.0881 5.71955 61.4614 5.66622C61.7708 5.61288 62.0748 5.55955 62.3734 5.50622C62.6828 5.44222 62.9868 5.36755 63.2854 5.28222ZM77.0431 5.77822C77.0431 5.09555 76.9151 4.44489 76.6591 3.82622C76.4137 3.20755 76.0724 2.67422 75.6351 2.22622C75.1977 1.76755 74.6857 1.41555 74.0991 1.17022C73.5124 0.914219 72.8777 0.812885 72.1951 0.866219L71.9871 0.882218C71.2297 1.04222 70.5897 1.25022 70.0671 1.50622C69.5444 1.75155 69.1231 2.07155 68.8031 2.46622C68.4831 2.85022 68.2484 3.32488 68.0991 3.89022C67.9604 4.44489 67.8911 5.11155 67.8911 5.89022C67.8911 6.40222 68.0351 6.90889 68.3231 7.41022C68.6217 7.91155 68.9951 8.35955 69.4431 8.75422C69.8911 9.14889 70.3817 9.46889 70.9151 9.71422C71.4591 9.95955 71.9817 10.0822 72.4831 10.0822C73.0911 10.0822 73.6671 9.97555 74.2111 9.76222C74.7657 9.54889 75.2511 9.25022 75.6671 8.86622C76.0831 8.48222 76.4137 8.02889 76.6591 7.50622C76.9151 6.97289 77.0431 6.39689 77.0431 5.77822ZM75.9711 5.76222C75.9711 6.27422 75.8964 6.75955 75.7471 7.21822C75.6084 7.67689 75.3951 8.08222 75.1071 8.43422C74.8297 8.77555 74.4831 9.05289 74.0671 9.26622C73.6511 9.46889 73.1711 9.57022 72.6271 9.57022C72.0511 9.57022 71.5391 9.44222 71.0911 9.18622C70.6431 8.91955 70.2591 8.57822 69.9391 8.16222C69.6297 7.73555 69.3951 7.26089 69.2351 6.73822C69.0751 6.21555 68.9951 5.68755 68.9951 5.15422C68.9951 4.64222 69.0697 4.16222 69.2191 3.71422C69.3791 3.25555 69.6031 2.85555 69.8911 2.51422C70.1791 2.16222 70.5311 1.89022 70.9471 1.69822C71.3737 1.49555 71.8591 1.39422 72.4031 1.39422C72.9791 1.39422 73.4857 1.52222 73.9231 1.77822C74.3711 2.03422 74.7444 2.37022 75.0431 2.78622C75.3524 3.20222 75.5817 3.67155 75.7311 4.19422C75.8911 4.71689 75.9711 5.23955 75.9711 5.76222ZM86.5184 9.84222L86.4704 9.71422C86.1504 9.75689 85.8358 9.70355 85.5264 9.55422C85.2171 9.39422 84.9184 9.18089 84.6304 8.91422C84.3424 8.63689 84.0651 8.33289 83.7984 8.00222C83.5424 7.66089 83.2971 7.33022 83.0624 7.01022C82.9024 6.79689 82.7531 6.59422 82.6144 6.40222C82.4758 6.19955 82.3478 6.03422 82.2304 5.90622C82.5824 5.57555 82.8971 5.18089 83.1744 4.72222C83.4624 4.26355 83.6064 3.77822 83.6064 3.26622C83.6064 2.88222 83.5318 2.55155 83.3824 2.27422C83.2331 1.99688 83.0358 1.77289 82.7904 1.60222C82.5451 1.43155 82.2624 1.30888 81.9424 1.23422C81.6224 1.14889 81.2971 1.10622 80.9664 1.10622H77.8144C77.7824 1.10622 77.7611 1.12755 77.7504 1.17022C77.7504 1.20222 77.7664 1.22355 77.7984 1.23422C78.0438 1.29822 78.2518 1.42622 78.4224 1.61822C78.6038 1.79955 78.6944 2.01289 78.6944 2.25822V8.64222C78.6944 8.88755 78.6198 9.11689 78.4704 9.33022C78.3211 9.54355 78.1344 9.70355 77.9104 9.81022C77.8784 9.83155 77.8678 9.86355 77.8784 9.90622C77.8998 9.93822 77.9264 9.94889 77.9584 9.93822C78.2038 9.90622 78.4384 9.87955 78.6624 9.85822C78.8971 9.83689 79.1371 9.82622 79.3824 9.82622C79.6278 9.82622 79.8678 9.83689 80.1024 9.85822C80.3478 9.86889 80.5931 9.88489 80.8384 9.90622V9.77822C80.5291 9.74622 80.2784 9.62355 80.0864 9.41022C79.9051 9.18622 79.8144 8.91955 79.8144 8.61022V6.33822C79.8998 6.31689 79.9798 6.30622 80.0544 6.30622C80.1398 6.30622 80.2251 6.30622 80.3104 6.30622C80.5984 6.30622 80.8544 6.35955 81.0784 6.46622C81.3131 6.57289 81.5264 6.71689 81.7184 6.89822C81.9211 7.06889 82.1024 7.26622 82.2624 7.49022C82.4331 7.70355 82.5931 7.92222 82.7424 8.14622C82.9024 8.39155 83.0678 8.63155 83.2384 8.86622C83.4198 9.10089 83.6118 9.30889 83.8144 9.49022C84.0171 9.67155 84.2464 9.82089 84.5024 9.93822C84.7584 10.0556 85.0464 10.1142 85.3664 10.1142C85.5584 10.1142 85.7504 10.0929 85.9424 10.0502C86.1451 9.99689 86.3371 9.92755 86.5184 9.84222ZM82.4704 3.85822C82.4704 4.43422 82.3531 4.88755 82.1184 5.21822C81.8944 5.53822 81.4838 5.69822 80.8864 5.69822C80.7051 5.69822 80.5291 5.69289 80.3584 5.68222C80.1878 5.67155 80.0118 5.65022 79.8304 5.61822V1.63422C79.9478 1.58088 80.0704 1.54889 80.1984 1.53822C80.3264 1.51688 80.4544 1.50622 80.5824 1.50622C80.8918 1.50622 81.1638 1.58088 81.3984 1.73022C81.6331 1.86888 81.8304 2.05022 81.9904 2.27422C82.1504 2.49822 82.2678 2.74888 82.3424 3.02622C82.4278 3.30355 82.4704 3.58088 82.4704 3.85822ZM91.3792 5.28222V5.15422C91.3152 5.13289 91.1925 5.11689 91.0112 5.10622C90.8299 5.09555 90.6165 5.09022 90.3712 5.09022C90.1365 5.07955 89.8805 5.07422 89.6032 5.07422C89.3259 5.07422 89.0592 5.07422 88.8032 5.07422H87.4912C87.4485 5.07422 87.4272 5.09022 87.4272 5.12222C87.3739 5.27155 87.3312 5.43155 87.2992 5.60222C87.2672 5.77289 87.2405 5.94355 87.2192 6.11422C87.2192 6.17822 87.2459 6.19955 87.2992 6.17822C87.6619 6.03955 88.0352 5.93289 88.4192 5.85822C88.8032 5.78355 89.1819 5.71955 89.5552 5.66622C89.8645 5.61288 90.1685 5.55955 90.4672 5.50622C90.7765 5.44222 91.0805 5.36755 91.3792 5.28222ZM96.2386 5.28222V5.15422C96.1746 5.13289 96.0519 5.11689 95.8706 5.10622C95.6892 5.09555 95.4759 5.09022 95.2306 5.09022C94.9959 5.07955 94.7399 5.07422 94.4626 5.07422C94.1852 5.07422 93.9186 5.07422 93.6626 5.07422H92.3506C92.3079 5.07422 92.2866 5.09022 92.2866 5.12222C92.2332 5.27155 92.1906 5.43155 92.1586 5.60222C92.1266 5.77289 92.0999 5.94355 92.0786 6.11422C92.0786 6.17822 92.1052 6.19955 92.1586 6.17822C92.5212 6.03955 92.8946 5.93289 93.2786 5.85822C93.6626 5.78355 94.0412 5.71955 94.4146 5.66622C94.7239 5.61288 95.0279 5.55955 95.3266 5.50622C95.6359 5.44222 95.9399 5.36755 96.2386 5.28222ZM101.098 5.28222V5.15422C101.034 5.13289 100.911 5.11689 100.73 5.10622C100.549 5.09555 100.335 5.09022 100.09 5.09022C99.8553 5.07955 99.5993 5.07422 99.3219 5.07422C99.0446 5.07422 98.7779 5.07422 98.5219 5.07422H97.2099C97.1673 5.07422 97.1459 5.09022 97.1459 5.12222C97.0926 5.27155 97.0499 5.43155 97.0179 5.60222C96.9859 5.77289 96.9593 5.94355 96.9379 6.11422C96.9379 6.17822 96.9646 6.19955 97.0179 6.17822C97.3806 6.03955 97.7539 5.93289 98.1379 5.85822C98.5219 5.78355 98.9006 5.71955 99.2739 5.66622C99.5833 5.61288 99.8873 5.55955 100.186 5.50622C100.495 5.44222 100.799 5.36755 101.098 5.28222ZM105.957 5.28222V5.15422C105.893 5.13289 105.771 5.11689 105.589 5.10622C105.408 5.09555 105.195 5.09022 104.949 5.09022C104.715 5.07955 104.459 5.07422 104.181 5.07422C103.904 5.07422 103.637 5.07422 103.381 5.07422H102.069C102.027 5.07422 102.005 5.09022 102.005 5.12222C101.952 5.27155 101.909 5.43155 101.877 5.60222C101.845 5.77289 101.819 5.94355 101.797 6.11422C101.797 6.17822 101.824 6.19955 101.877 6.17822C102.24 6.03955 102.613 5.93289 102.997 5.85822C103.381 5.78355 103.76 5.71955 104.133 5.66622C104.443 5.61288 104.747 5.55955 105.045 5.50622C105.355 5.44222 105.659 5.36755 105.957 5.28222ZM110.817 5.28222V5.15422C110.753 5.13289 110.63 5.11689 110.449 5.10622C110.267 5.09555 110.054 5.09022 109.809 5.09022C109.574 5.07955 109.318 5.07422 109.041 5.07422C108.763 5.07422 108.497 5.07422 108.241 5.07422H106.929C106.886 5.07422 106.865 5.09022 106.865 5.12222C106.811 5.27155 106.769 5.43155 106.737 5.60222C106.705 5.77289 106.678 5.94355 106.657 6.11422C106.657 6.17822 106.683 6.19955 106.737 6.17822C107.099 6.03955 107.473 5.93289 107.857 5.85822C108.241 5.78355 108.619 5.71955 108.993 5.66622C109.302 5.61288 109.606 5.55955 109.905 5.50622C110.214 5.44222 110.518 5.36755 110.817 5.28222ZM115.676 5.28222V5.15422C115.612 5.13289 115.489 5.11689 115.308 5.10622C115.127 5.09555 114.913 5.09022 114.668 5.09022C114.433 5.07955 114.177 5.07422 113.9 5.07422C113.623 5.07422 113.356 5.07422 113.1 5.07422H111.788C111.745 5.07422 111.724 5.09022 111.724 5.12222C111.671 5.27155 111.628 5.43155 111.596 5.60222C111.564 5.77289 111.537 5.94355 111.516 6.11422C111.516 6.17822 111.543 6.19955 111.596 6.17822C111.959 6.03955 112.332 5.93289 112.716 5.85822C113.1 5.78355 113.479 5.71955 113.852 5.66622C114.161 5.61288 114.465 5.55955 114.764 5.50622C115.073 5.44222 115.377 5.36755 115.676 5.28222ZM120.535 5.28222V5.15422C120.471 5.13289 120.349 5.11689 120.167 5.10622C119.986 5.09555 119.773 5.09022 119.527 5.09022C119.293 5.07955 119.037 5.07422 118.759 5.07422C118.482 5.07422 118.215 5.07422 117.959 5.07422H116.647C116.605 5.07422 116.583 5.09022 116.583 5.12222C116.53 5.27155 116.487 5.43155 116.455 5.60222C116.423 5.77289 116.397 5.94355 116.375 6.11422C116.375 6.17822 116.402 6.19955 116.455 6.17822C116.818 6.03955 117.191 5.93289 117.575 5.85822C117.959 5.78355 118.338 5.71955 118.711 5.66622C119.021 5.61288 119.325 5.55955 119.623 5.50622C119.933 5.44222 120.237 5.36755 120.535 5.28222ZM125.395 5.28222V5.15422C125.331 5.13289 125.208 5.11689 125.027 5.10622C124.845 5.09555 124.632 5.09022 124.387 5.09022C124.152 5.07955 123.896 5.07422 123.619 5.07422C123.341 5.07422 123.075 5.07422 122.819 5.07422H121.507C121.464 5.07422 121.443 5.09022 121.443 5.12222C121.389 5.27155 121.347 5.43155 121.315 5.60222C121.283 5.77289 121.256 5.94355 121.235 6.11422C121.235 6.17822 121.261 6.19955 121.315 6.17822C121.677 6.03955 122.051 5.93289 122.435 5.85822C122.819 5.78355 123.197 5.71955 123.571 5.66622C123.88 5.61288 124.184 5.55955 124.483 5.50622C124.792 5.44222 125.096 5.36755 125.395 5.28222ZM130.254 5.28222V5.15422C130.19 5.13289 130.068 5.11689 129.886 5.10622C129.705 5.09555 129.492 5.09022 129.246 5.09022C129.012 5.07955 128.756 5.07422 128.478 5.07422C128.201 5.07422 127.934 5.07422 127.678 5.07422H126.366C126.324 5.07422 126.302 5.09022 126.302 5.12222C126.249 5.27155 126.206 5.43155 126.174 5.60222C126.142 5.77289 126.116 5.94355 126.094 6.11422C126.094 6.17822 126.121 6.19955 126.174 6.17822C126.537 6.03955 126.91 5.93289 127.294 5.85822C127.678 5.78355 128.057 5.71955 128.43 5.66622C128.74 5.61288 129.044 5.55955 129.342 5.50622C129.652 5.44222 129.956 5.36755 130.254 5.28222ZM135.114 5.28222V5.15422C135.05 5.13289 134.927 5.11689 134.746 5.10622C134.564 5.09555 134.351 5.09022 134.106 5.09022C133.871 5.07955 133.615 5.07422 133.338 5.07422C133.06 5.07422 132.794 5.07422 132.538 5.07422H131.226C131.183 5.07422 131.162 5.09022 131.162 5.12222C131.108 5.27155 131.066 5.43155 131.034 5.60222C131.002 5.77289 130.975 5.94355 130.954 6.11422C130.954 6.17822 130.98 6.19955 131.034 6.17822C131.396 6.03955 131.77 5.93289 132.154 5.85822C132.538 5.78355 132.916 5.71955 133.29 5.66622C133.599 5.61288 133.903 5.55955 134.202 5.50622C134.511 5.44222 134.815 5.36755 135.114 5.28222ZM139.973 5.28222V5.15422C139.909 5.13289 139.786 5.11689 139.605 5.10622C139.424 5.09555 139.21 5.09022 138.965 5.09022C138.73 5.07955 138.474 5.07422 138.197 5.07422C137.92 5.07422 137.653 5.07422 137.397 5.07422H136.085C136.042 5.07422 136.021 5.09022 136.021 5.12222C135.968 5.27155 135.925 5.43155 135.893 5.60222C135.861 5.77289 135.834 5.94355 135.813 6.11422C135.813 6.17822 135.84 6.19955 135.893 6.17822C136.256 6.03955 136.629 5.93289 137.013 5.85822C137.397 5.78355 137.776 5.71955 138.149 5.66622C138.458 5.61288 138.762 5.55955 139.061 5.50622C139.37 5.44222 139.674 5.36755 139.973 5.28222ZM144.832 5.28222V5.15422C144.768 5.13289 144.646 5.11689 144.464 5.10622C144.283 5.09555 144.07 5.09022 143.824 5.09022C143.59 5.07955 143.334 5.07422 143.056 5.07422C142.779 5.07422 142.512 5.07422 142.256 5.07422H140.944C140.902 5.07422 140.88 5.09022 140.88 5.12222C140.827 5.27155 140.784 5.43155 140.752 5.60222C140.72 5.77289 140.694 5.94355 140.672 6.11422C140.672 6.17822 140.699 6.19955 140.752 6.17822C141.115 6.03955 141.488 5.93289 141.872 5.85822C142.256 5.78355 142.635 5.71955 143.008 5.66622C143.318 5.61288 143.622 5.55955 143.92 5.50622C144.23 5.44222 144.534 5.36755 144.832 5.28222ZM149.692 5.28222V5.15422C149.628 5.13289 149.505 5.11689 149.324 5.10622C149.142 5.09555 148.929 5.09022 148.684 5.09022C148.449 5.07955 148.193 5.07422 147.916 5.07422C147.638 5.07422 147.372 5.07422 147.116 5.07422H145.804C145.761 5.07422 145.74 5.09022 145.74 5.12222C145.686 5.27155 145.644 5.43155 145.612 5.60222C145.58 5.77289 145.553 5.94355 145.532 6.11422C145.532 6.17822 145.558 6.19955 145.612 6.17822C145.974 6.03955 146.348 5.93289 146.732 5.85822C147.116 5.78355 147.494 5.71955 147.868 5.66622C148.177 5.61288 148.481 5.55955 148.78 5.50622C149.089 5.44222 149.393 5.36755 149.692 5.28222Z" fill="white"/>
</svg>
